<mxfile host="app.diagrams.net" modified="2020-09-08T17:52:51.335Z" agent="5.0 (Macintosh; Intel Mac OS X 10_15_6) AppleWebKit/605.1.15 (KHTML, like Gecko) Version/13.1.2 Safari/605.1.15" etag="nWpf25eEeylNxafCbCsF" version="13.6.9" type="github">
  <diagram name="Page-1" id="822b0af5-4adb-64df-f703-e8dfc1f81529">
    <mxGraphModel dx="1351" dy="946" grid="1" gridSize="10" guides="1" tooltips="1" connect="1" arrows="1" fold="1" page="1" pageScale="1" pageWidth="1100" pageHeight="850" background="#ffffff" math="0" shadow="0">
      <root>
        <mxCell id="0" />
        <mxCell id="1" parent="0" />
        <mxCell id="OfGrUq5ytbP9kOkfj1e7-4" value="" style="endArrow=classic;startArrow=classic;html=1;" edge="1" parent="1" source="OfGrUq5ytbP9kOkfj1e7-22" target="OfGrUq5ytbP9kOkfj1e7-28">
          <mxGeometry width="50" height="50" relative="1" as="geometry">
            <mxPoint x="260.3600000000001" y="408.3000000000002" as="sourcePoint" />
            <mxPoint x="550" y="460" as="targetPoint" />
          </mxGeometry>
        </mxCell>
        <mxCell id="OfGrUq5ytbP9kOkfj1e7-5" value="" style="endArrow=classic;startArrow=classic;html=1;" edge="1" parent="1" source="OfGrUq5ytbP9kOkfj1e7-28" target="OfGrUq5ytbP9kOkfj1e7-23">
          <mxGeometry width="50" height="50" relative="1" as="geometry">
            <mxPoint x="721.7999999999997" y="446.79999999999995" as="sourcePoint" />
            <mxPoint x="990" y="390" as="targetPoint" />
          </mxGeometry>
        </mxCell>
        <mxCell id="OfGrUq5ytbP9kOkfj1e7-6" value="" style="rounded=0;whiteSpace=wrap;html=1;fillColor=#d5e8d4;strokeColor=#82b366;" vertex="1" parent="1">
          <mxGeometry x="60" y="200" width="220" height="120" as="geometry" />
        </mxCell>
        <mxCell id="OfGrUq5ytbP9kOkfj1e7-7" value="&lt;font style=&quot;font-size: 17px&quot;&gt;eth1:&lt;br&gt;&amp;nbsp;10.0.0.2&lt;br&gt;02:fc:01:90:c8:34&lt;br&gt;&lt;/font&gt;" style="text;html=1;strokeColor=none;fillColor=none;align=center;verticalAlign=middle;whiteSpace=wrap;rounded=0;" vertex="1" parent="1">
          <mxGeometry x="80" y="220" width="170" height="60" as="geometry" />
        </mxCell>
        <mxCell id="OfGrUq5ytbP9kOkfj1e7-9" value="&lt;span style=&quot;font-size: 21px&quot;&gt;romeo&lt;/span&gt;" style="text;html=1;strokeColor=none;fillColor=none;align=center;verticalAlign=middle;whiteSpace=wrap;rounded=0;" vertex="1" parent="1">
          <mxGeometry x="105" y="540" width="130" height="95" as="geometry" />
        </mxCell>
        <mxCell id="OfGrUq5ytbP9kOkfj1e7-13" value="&lt;span style=&quot;font-size: 21px&quot;&gt;juliet&lt;/span&gt;" style="text;html=1;strokeColor=none;fillColor=none;align=center;verticalAlign=middle;whiteSpace=wrap;rounded=0;" vertex="1" parent="1">
          <mxGeometry x="1030" y="540" width="130" height="95" as="geometry" />
        </mxCell>
        <mxCell id="OfGrUq5ytbP9kOkfj1e7-14" value="&lt;span style=&quot;font-size: 21px&quot;&gt;router&lt;/span&gt;" style="text;html=1;strokeColor=none;fillColor=none;align=center;verticalAlign=middle;whiteSpace=wrap;rounded=0;" vertex="1" parent="1">
          <mxGeometry x="590" y="540" width="130" height="95" as="geometry" />
        </mxCell>
        <mxCell id="OfGrUq5ytbP9kOkfj1e7-15" value="" style="rounded=0;whiteSpace=wrap;html=1;fillColor=#d5e8d4;strokeColor=#82b366;" vertex="1" parent="1">
          <mxGeometry x="970" y="190" width="220" height="120" as="geometry" />
        </mxCell>
        <mxCell id="OfGrUq5ytbP9kOkfj1e7-16" value="&lt;font style=&quot;font-size: 17px&quot;&gt;eth1:&lt;br&gt;&amp;nbsp;10.0.1.2&lt;br&gt;02:07:62:7b:3d:93&lt;br&gt;&lt;/font&gt;" style="text;html=1;strokeColor=none;fillColor=none;align=center;verticalAlign=middle;whiteSpace=wrap;rounded=0;" vertex="1" parent="1">
          <mxGeometry x="990" y="220" width="170" height="60" as="geometry" />
        </mxCell>
        <mxCell id="OfGrUq5ytbP9kOkfj1e7-17" value="" style="rounded=0;whiteSpace=wrap;html=1;fillColor=#f8cecc;strokeColor=#b85450;" vertex="1" parent="1">
          <mxGeometry x="370" y="160" width="220" height="120" as="geometry" />
        </mxCell>
        <mxCell id="OfGrUq5ytbP9kOkfj1e7-19" value="&lt;font style=&quot;font-size: 17px&quot;&gt;eth1:&lt;br&gt;&amp;nbsp;10.0.0.1&lt;br&gt;02:a8:3b:98:52:18&lt;br&gt;&lt;/font&gt;" style="text;html=1;strokeColor=none;fillColor=none;align=center;verticalAlign=middle;whiteSpace=wrap;rounded=0;" vertex="1" parent="1">
          <mxGeometry x="390" y="190" width="170" height="60" as="geometry" />
        </mxCell>
        <mxCell id="OfGrUq5ytbP9kOkfj1e7-20" value="" style="rounded=0;whiteSpace=wrap;html=1;fillColor=#f8cecc;strokeColor=#b85450;" vertex="1" parent="1">
          <mxGeometry x="670" y="150" width="220" height="120" as="geometry" />
        </mxCell>
        <mxCell id="OfGrUq5ytbP9kOkfj1e7-21" value="&lt;font style=&quot;font-size: 17px&quot;&gt;eth2:&lt;br&gt;&amp;nbsp;10.0.1.1&lt;br&gt;02:12:d6:c5:c8:b8&lt;br&gt;&lt;/font&gt;" style="text;html=1;strokeColor=none;fillColor=none;align=center;verticalAlign=middle;whiteSpace=wrap;rounded=0;" vertex="1" parent="1">
          <mxGeometry x="690" y="180" width="170" height="60" as="geometry" />
        </mxCell>
        <mxCell id="OfGrUq5ytbP9kOkfj1e7-22" value="" style="verticalLabelPosition=bottom;aspect=fixed;html=1;verticalAlign=top;strokeColor=none;align=center;outlineConnect=0;shape=mxgraph.citrix.desktop;" vertex="1" parent="1">
          <mxGeometry x="92.81" y="365" width="154.39" height="170" as="geometry" />
        </mxCell>
        <mxCell id="OfGrUq5ytbP9kOkfj1e7-23" value="" style="verticalLabelPosition=bottom;aspect=fixed;html=1;verticalAlign=top;strokeColor=none;align=center;outlineConnect=0;shape=mxgraph.citrix.desktop;" vertex="1" parent="1">
          <mxGeometry x="1002.81" y="365" width="154.39" height="170" as="geometry" />
        </mxCell>
        <mxCell id="OfGrUq5ytbP9kOkfj1e7-25" value="" style="endArrow=none;html=1;fillColor=#d5e8d4;strokeColor=#82b366;" edge="1" parent="1" source="OfGrUq5ytbP9kOkfj1e7-23" target="OfGrUq5ytbP9kOkfj1e7-15">
          <mxGeometry width="50" height="50" relative="1" as="geometry">
            <mxPoint x="1090" y="330" as="sourcePoint" />
            <mxPoint x="660" y="460" as="targetPoint" />
          </mxGeometry>
        </mxCell>
        <mxCell id="OfGrUq5ytbP9kOkfj1e7-27" value="" style="endArrow=none;html=1;fillColor=#d5e8d4;strokeColor=#82b366;" edge="1" parent="1" source="OfGrUq5ytbP9kOkfj1e7-22" target="OfGrUq5ytbP9kOkfj1e7-6">
          <mxGeometry width="50" height="50" relative="1" as="geometry">
            <mxPoint x="610" y="510" as="sourcePoint" />
            <mxPoint x="660" y="460" as="targetPoint" />
          </mxGeometry>
        </mxCell>
        <mxCell id="OfGrUq5ytbP9kOkfj1e7-28" value="" style="verticalLabelPosition=bottom;aspect=fixed;html=1;verticalAlign=top;strokeColor=none;align=center;outlineConnect=0;shape=mxgraph.citrix.router;" vertex="1" parent="1">
          <mxGeometry x="550" y="390" width="195.89" height="130" as="geometry" />
        </mxCell>
        <mxCell id="OfGrUq5ytbP9kOkfj1e7-29" value="" style="endArrow=none;html=1;entryX=0.5;entryY=1;entryDx=0;entryDy=0;fillColor=#f8cecc;strokeColor=#b85450;" edge="1" parent="1" source="OfGrUq5ytbP9kOkfj1e7-28" target="OfGrUq5ytbP9kOkfj1e7-17">
          <mxGeometry width="50" height="50" relative="1" as="geometry">
            <mxPoint x="610" y="500" as="sourcePoint" />
            <mxPoint x="660" y="450" as="targetPoint" />
          </mxGeometry>
        </mxCell>
        <mxCell id="OfGrUq5ytbP9kOkfj1e7-30" value="" style="endArrow=none;html=1;entryX=0.418;entryY=1.021;entryDx=0;entryDy=0;entryPerimeter=0;fillColor=#f8cecc;strokeColor=#b85450;" edge="1" parent="1" source="OfGrUq5ytbP9kOkfj1e7-28" target="OfGrUq5ytbP9kOkfj1e7-20">
          <mxGeometry width="50" height="50" relative="1" as="geometry">
            <mxPoint x="610" y="500" as="sourcePoint" />
            <mxPoint x="660" y="450" as="targetPoint" />
          </mxGeometry>
        </mxCell>
      </root>
    </mxGraphModel>
  </diagram>
</mxfile>
